<svg width="26" height="26" fill="none" xmlns="http://www.w3.org/2000/svg"><path fill-rule="evenodd" clip-rule="evenodd" d="M20.613 19.704c-2.159 2.36-4.35 3.016-5.625 3.212-.066-1.377.196-3.868 2.354-6.163 2.06-2.197 4.35-2.885 5.756-3.114-.13 1.54-.654 4.065-2.485 6.065zm-9.615 3.212c-1.243-.196-3.434-.852-5.592-3.212-1.832-2-2.388-4.525-2.518-6.066 1.406.23 3.695.918 5.755 3.115 2.191 2.295 2.453 4.754 2.355 6.163zm2.322-11.441c-.13-.197-1.7-2-5.233-3.574-3.074-1.377-5.396-1.573-5.494-1.573a1.404 1.404 0 0 0-.36 2.786c.033 0 1.995.164 4.677 1.345 2.813 1.245 4.12 2.655 4.12 2.655v-.033c.459.623 1.341.787 1.963.328.654-.426.785-1.311.327-1.934zm-.556-10.327c-.13-.066-1.275-.787-2.584-1.115-.752-.164-1.537.295-1.7 1.05a1.445 1.445 0 0 0 1.046 1.704c.883.197 1.734.754 1.734.754.654.426 1.537.23 1.93-.426a1.424 1.424 0 0 0-.426-1.967zM8.97 3.803c1.897.722 3.663 2.066 3.794 2.164.621.492.72 1.377.261 2a1.443 1.443 0 0 1-1.994.262c-.066-.033-.49-.36-1.112-.754a11.714 11.714 0 0 0-1.93-.983c-1.57-.59-3.27-.886-3.335-.918-.753-.131-1.276-.886-1.145-1.64a1.433 1.433 0 0 1 1.635-1.147c.196-.033 1.93.23 3.826 1.016zm17.006 8.23a1.465 1.465 0 0 0-1.308-1.312c-.196-.033-5.2-.328-9.386 4.098a10.74 10.74 0 0 0-2.29 3.508 11.918 11.918 0 0 0-2.288-3.508C6.55 10.393 1.547 10.72 1.318 10.72A1.436 1.436 0 0 0 .01 12.032c0 .23-.36 5.606 3.303 9.606 4.251 4.59 8.47 4.36 9.712 4.36 1.243 0 5.397.23 9.648-4.36 3.695-4 3.336-9.376 3.303-9.606z" fill="#F9B101"/></svg>