<svg width="32" height="17" fill="none" xmlns="http://www.w3.org/2000/svg"><path fill-rule="evenodd" clip-rule="evenodd" d="M27.66 7.234c-1.024-1.242-3.384-.67-5.426.296.018.23.028.461.028.696 0 2.765-1.276 5.186-3.163 6.472 1.247-.078 2.75-.447 4.388-1.501 2.997-1.929 5.178-4.37 4.173-5.963zm-23.32 0c1.024-1.242 3.383-.67 5.426.296-.018.23-.028.461-.028.696 0 2.765 1.276 5.186 3.164 6.472-1.247-.078-2.75-.447-4.39-1.501-2.996-1.929-5.177-4.37-4.173-5.963zm26.617 5.364c-.693-.595-2.049-.889-3.591-.994-.753 1.072-1.814 2.118-3.069 3a9.8 9.8 0 0 1-1.734.967 19.68 19.68 0 0 0 2.635-.188c3.909-.543 6.852-1.584 5.76-2.785zM4.38 11.221c-1.942.247-3.484.715-3.992 1.26-1.44 1.582 1.304 3.242 5.545 3.95 2.437.406 7.778.706 10.069-.648 2.289 1.354 7.631 1.054 10.067.647 4.241-.707 6.986-2.367 5.545-3.95-.508-.544-2.05-1.012-3.992-1.26.988-1.57 1.288-3.163.54-4.35-.723-1.115-3.379-1.26-6.041-.224C21.508 3.296 18.994.773 16 .773s-5.508 2.523-6.12 5.873c-2.662-1.036-5.318-.891-6.04.223-.75 1.188-.45 2.78.539 4.352zm-3.336 1.377c.693-.595 2.049-.889 3.591-.994.752 1.072 1.813 2.118 3.069 3a9.82 9.82 0 0 0 1.733.967 19.668 19.668 0 0 1-2.634-.188c-3.909-.543-6.853-1.584-5.76-2.785zM16 1.505c2.4 0 4.393 2.534 4.71 5.807-.309.173-.612.364-.907.572-.22.153-.434.313-.645.478l-.039 1.152c.367-.344.944-.768 1.635-1.187-.039 3.656-2.159 6.622-4.754 6.622-2.595 0-4.715-2.966-4.754-6.622.69.419 1.268.843 1.634 1.187l-.038-1.152c-.211-.165-.426-.325-.645-.478a10.639 10.639 0 0 0-.907-.572c.317-3.273 2.31-5.807 4.71-5.807z" fill="#26528E"/></svg>