<svg width="28" height="18" fill="none" xmlns="http://www.w3.org/2000/svg"><path fill-rule="evenodd" clip-rule="evenodd" d="M15.872 4.034c2.35-.539 5.287-1 5.618-4.029H3.212C1.288.155.015 1.755.015 3.49v4.19L0 18c.17-.756.712-3.915 2.19-6.297 1.103-1.745 2.646-3.159 4.365-4.236 2.707-1.693 5.964-2.661 9.317-3.433zM28 0v14.484C28 16.415 26.466 18 24.597 18h-8.68c2.406-1.02 6.986-3.65 6.88-6.81-.154-4.53-6.294-3.107-6.294-3.107.832 1.259 1.439 2.755.807 4.449-.807 2.17-2.932 3.676-4.971 4.401-3.76 1.341-7.332 1.005-7.332 1.005.496-2.263 1.172-4.712 2.57-6.514 1.83-2.367 4.671-3.48 7.343-4.49 2.746-1.036 7.452-1.486 10.068-3.356C27.604 1.714 28 0 28 0z" fill="#499C7E"/></svg>