<svg width="26" height="26" fill="none" xmlns="http://www.w3.org/2000/svg"><path fill-rule="evenodd" clip-rule="evenodd" d="M22.186 3.814A12.928 12.928 0 0 1 26 13H13l9.186-9.186z" fill="#CC2128"/><path fill-rule="evenodd" clip-rule="evenodd" d="M13 0c3.58 0 6.811 1.479 9.186 3.814L13 13V0z" fill="#982531"/><path fill-rule="evenodd" clip-rule="evenodd" d="M0 0h13v13L0 0z" fill="#CC2128"/><path fill-rule="evenodd" clip-rule="evenodd" d="M0 7.434V0l13 13H5.566L0 7.434zM22.186 22.186A12.928 12.928 0 0 0 26 13H13l9.186 9.186z" fill="#982531"/><path fill-rule="evenodd" clip-rule="evenodd" d="M13 26c3.58 0 6.811-1.479 9.186-3.814L13 13v13z" fill="#B31F27"/><path fill-rule="evenodd" clip-rule="evenodd" d="M0 26h13V13L0 26z" fill="#CC2128"/><path fill-rule="evenodd" clip-rule="evenodd" d="M0 18.566V26l13-13H5.566L0 18.566z" fill="#B31F27"/><path fill-rule="evenodd" clip-rule="evenodd" d="m9.264 12.688 1.479-1.479-3.114-3.113H2.686l4.592 4.592h1.986zM12.689 9.263l-1.48 1.48-3.113-3.114V2.686l4.593 4.592v1.985zM12.689 16.737l-1.48-1.48-3.113 3.114v4.944l4.593-4.593v-1.985zM9.264 13.311l1.479 1.48-3.114 3.113H2.686l4.592-4.593h1.986zM16.737 13.311l-1.48 1.48 3.114 3.113h4.944l-4.593-4.593h-1.985zM13.311 16.737l1.48-1.48 3.113 3.114v4.944l-4.593-4.593v-1.985zM13.311 9.263l1.48 1.48 3.113-3.114V2.686l-4.593 4.592v1.985zM16.737 12.688l-1.48-1.479 3.114-3.113h4.944l-4.593 4.592h-1.985z" fill="#fff"/></svg>