<svg width="32" height="11" fill="none" xmlns="http://www.w3.org/2000/svg"><path fill-rule="evenodd" clip-rule="evenodd" d="M23.87.285a24.09 24.09 0 0 1-.438.092 3.14 3.14 0 0 0-.628.216l-.307.15-.252-.125a3.556 3.556 0 0 0-.632-.216c-.219-.052-.651-.09-1.023-.09-.376 0-.779.036-.967.085a4.299 4.299 0 0 0-.593.211l-.272.127-.377-.152a4.514 4.514 0 0 0-.813-.219 4.913 4.913 0 0 0-.936-.032c-.276.019-.685.09-.908.159-.223.068-.52.194-.66.28-.198.121-.927 1.024-3.338 4.134a3899.678 3899.678 0 0 0-3.115 4.02c-.016.022-.333-.009-.703-.069-.37-.06-.99-.177-1.377-.26-.386-.084-.94-.214-1.23-.29-.29-.076-.764-.221-1.054-.322a12.26 12.26 0 0 1-1.058-.439 6.536 6.536 0 0 1-.901-.534c-.205-.154-.447-.398-.54-.543a.907.907 0 0 1-.166-.548c0-.156.038-.36.085-.45.048-.092.212-.277.366-.413.154-.135.49-.345.749-.467.258-.122.693-.296.966-.386.274-.09.8-.247 1.17-.35.368-.103.68-.218.693-.254.012-.037-.026-.067-.085-.067-.06 0-.569.117-1.133.26a29.75 29.75 0 0 0-1.47.406c-.244.08-.687.251-.983.38a9.16 9.16 0 0 0-.867.428c-.18.107-.44.304-.578.437-.138.134-.306.35-.373.481A1.173 1.173 0 0 0 0 6.36c0 .108.068.332.151.5.099.196.268.396.483.57.183.147.622.41.977.585.354.175.895.4 1.2.499.307.1.9.27 1.319.38.418.11 1.196.28 1.728.377.531.097 1.454.242 2.05.321a52.1 52.1 0 0 0 2.138.231c.58.048 1.305.104 1.61.124.307.02 1.243.056 2.08.082a83.34 83.34 0 0 0 3.544 0 73.952 73.952 0 0 0 3.222-.138 69.45 69.45 0 0 0 2.43-.243 59.38 59.38 0 0 0 2.256-.322 37.351 37.351 0 0 0 2.22-.468c.657-.161 1.487-.401 1.845-.532.358-.131.855-.34 1.106-.464.25-.124.609-.33.797-.459a3.04 3.04 0 0 0 .5-.418 2.5 2.5 0 0 0 .251-.37c.053-.1.095-.307.093-.459a1.056 1.056 0 0 0-.156-.536 2.52 2.52 0 0 0-.428-.502 5.23 5.23 0 0 0-.612-.448 9.186 9.186 0 0 0-.958-.465 16.723 16.723 0 0 0-2.432-.783 46.886 46.886 0 0 0-1.054-.238c-.306-.065-.886-.17-1.29-.236a57.957 57.957 0 0 0-1.366-.2c-.349-.047-.647-.097-.663-.113-.016-.015.235-.383.556-.817.322-.435.672-.856.78-.936.108-.08.3-.18.425-.22.142-.046.377-.061.618-.041.213.018.527.085.696.15.196.074.3.092.287.048-.013-.038-.127-.127-.255-.198A3.057 3.057 0 0 0 25.567.4a5.773 5.773 0 0 0-.965-.117c-.338-.014-.668-.013-.732.002zM22.098.73c.153.034.278.082.278.107 0 .025-.042.08-.094.123-.051.043-1.53 1.94-3.284 4.217l-3.19 4.14-.304.036c-.167.02-.52.037-.787.037-.265 0-.483-.012-.483-.026 0-.015 1.347-1.84 2.994-4.055 1.646-2.216 3.044-4.093 3.106-4.173.063-.079.204-.205.314-.28.11-.075.3-.16.422-.189.123-.029.341-.04.486-.025.145.015.39.055.542.088zM18.273.726c.163.035.296.083.296.107 0 .024-.062.102-.138.173-.076.071-1.546 1.96-3.266 4.195l-3.127 4.066-.352-.003A8.125 8.125 0 0 1 11 9.223l-.336-.038 2.813-3.778a952.61 952.61 0 0 1 3.078-4.119c.189-.244.35-.381.568-.483.185-.086.413-.142.58-.142.151 0 .408.028.571.063zm5.012 2.567c.322.062.955.206 1.407.32.452.114 1.085.3 1.406.411.321.112.761.283.978.38.217.098.555.286.752.42.211.144.427.352.528.512.105.165.171.349.171.474 0 .113-.056.32-.124.46-.075.156-.262.368-.482.546-.197.16-.53.379-.74.488-.21.109-.623.292-.917.407-.294.115-.796.287-1.116.382-.32.095-.942.254-1.382.353-.441.1-1.191.246-1.667.327a47.27 47.27 0 0 1-1.802.262c-.516.063-1.211.133-1.546.156-.429.03-.601.023-.585-.022.012-.035 1.01-1.396 2.219-3.024 1.208-1.628 2.223-2.96 2.255-2.962a9.71 9.71 0 0 1 .645.11z" fill="#033A7D"/></svg>